{"title":"Sneaking.Around.XXX.BDRip.XviD-STARLETS","uid":7862251,"size":1465178622,"categoryP":"porn","categoryS":"movies","magnet":"?xt=urn:btih:e3276e5af7589d51cc27c5cc2d0fc8dfe6f3ecb6&amp;dn=Sneaking.Around.XXX.BDRip.XviD-STARLETS&amp;tr=udp%3A%2F%2Ftracker.openbittorrent.com%3A80&amp;tr=udp%3A%2F%2Fopen.demonii.com%3A1337&amp;tr=udp%3A%2F%2Ftracker.coppersurfer.tk%3A6969&amp;tr=udp%3A%2F%2Fexodus.desync.com%3A6969","seeders":1,"leechers":1,"uploader":"R0thschild","files":4,"time":1353962497,"description":"Gallery: \n &lt;a href=&quot;\nhttp://imagedomino.com/?g=150816&quot; rel=&quot;nofollow&quot; target=&quot;_NEW&quot;&gt;\nhttp://imagedomino.com/?g=150816&lt;/a&gt;\n\nStudio\nDigital Playground\nStarring\nErik Everhard, Manuel Ferrara, Toni Ribas, Scott Nails, Lou Charmelle, Jessie Volt, Selena Rose, Loni Evans\nGenre\nFeature\nDescription\nScott Nails and Erik Everhard are the perverted gym rots who got a lusty game going, scamming on the hot girls who come to workout. The naughty and beautiful Selena Rose is caught in their bad boy madness, teasing her into coming over for a date with Manuel Ferrara, only to make her their latest sexual conquest. But after two more hot girls get caught in their nasty game, Selena sneaks around and gets Manuel after all.\n\nDuration                         : 1h 5mn\nBit rate                         : 1 361 Kbps\nWidth                            : 624 pixels\nHeight                           : 352 pixels\nDisplay aspect ratio             : 16:9\nFrame rate                       : 23.976 fps\nColor space                      : YUV\nChroma subsampling               : 4:2:0\nBit depth                        : 8 bits\nScan type                        : Progressive\nCompression mode                 : Lossy\nBits/(Pixel*Frame)               : 0.258\nStream size                      : 638 MiB (91%)\n\nDuration                         : 1h 0mn\nBit rate                         : 1 484 Kbps\nWidth                            : 624 pixels\nHeight                           : 352 pixels\nDisplay aspect ratio             : 16:9\nFrame rate                       : 23.976 fps\nColor space                      : YUV\nChroma subsampling               : 4:2:0\nBit depth                        : 8 bits\nScan type                        : Progressive\nCompression mode                 : Lossy\nBits/(Pixel*Frame)               : 0.282\nStream size                      : 641 MiB (92%)","torrent":{"xt":"urn:btih:e3276e5af7589d51cc27c5cc2d0fc8dfe6f3ecb6","amp;dn":"Sneaking.Around.XXX.BDRip.XviD-STARLETS","amp;tr":["udp%3A%2F%2Ftracker.openbittorrent.com%3A80","udp%3A%2F%2Fopen.demonii.com%3A1337","udp%3A%2F%2Ftracker.coppersurfer.tk%3A6969","udp%3A%2F%2Fexodus.desync.com%3A6969"],"infoHash":"e3276e5af7589d51cc27c5cc2d0fc8dfe6f3ecb6","infoHashBuffer":{"type":"Buffer","data":[227,39,110,90,247,88,157,81,204,39,197,204,45,15,200,223,230,243,236,182]},"announce":[],"urlList":[]}}